<?xml version="1.0" encoding="UTF-8" standalone="no"?>
<!DOCTYPE svg PUBLIC "-//W3C//DTD SVG 1.1//EN"
 "http://www.w3.org/Graphics/SVG/1.1/DTD/svg11.dtd">
<!-- Generated by graphviz version 11.0.0 (20240428.1522)
 -->
<!-- Pages: 1 -->
<svg width="259pt" height="221pt"
 viewBox="0.00 0.00 258.57 221.00" xmlns="http://www.w3.org/2000/svg" xmlns:xlink="http://www.w3.org/1999/xlink">
<g id="graph0" class="graph" transform="scale(1 1) rotate(0) translate(4 217)">
<polygon fill="white" stroke="none" points="-4,4 -4,-217 254.57,-217 254.57,4 -4,4"/>
<!-- Bridge -->
<g id="node1" class="node">
<title>Bridge</title>
<ellipse fill="none" stroke="black" cx="40.09" cy="-106.5" rx="36" ry="18"/>
<text text-anchor="middle" x="40.09" y="-101.45" font-family="Times,serif" font-size="14.00">Bridge</text>
</g>
<!-- Domain -->
<g id="node2" class="node">
<title>Domain</title>
<ellipse fill="none" stroke="black" cx="155.09" cy="-18" rx="41.12" ry="18"/>
<text text-anchor="middle" x="155.09" y="-12.95" font-family="Times,serif" font-size="14.00">Domain</text>
</g>
<!-- Bridge&#45;&gt;Domain -->
<g id="edge1" class="edge">
<title>Bridge&#45;&gt;Domain</title>
<path fill="none" stroke="black" d="M59.34,-91.02C77.53,-77.34 105.06,-56.63 125.94,-40.93"/>
<polygon fill="black" stroke="black" points="127.91,-43.83 133.8,-35.02 123.7,-38.23 127.91,-43.83"/>
<text text-anchor="middle" x="113.84" y="-57.2" font-family="Times,serif" font-size="14.00">13</text>
</g>
<!-- Support -->
<g id="node3" class="node">
<title>Support</title>
<ellipse fill="none" stroke="black" cx="40.09" cy="-18" rx="40.09" ry="18"/>
<text text-anchor="middle" x="40.09" y="-12.95" font-family="Times,serif" font-size="14.00">Support</text>
</g>
<!-- Bridge&#45;&gt;Support -->
<g id="edge2" class="edge">
<title>Bridge&#45;&gt;Support</title>
<path fill="none" stroke="black" d="M40.09,-88.41C40.09,-76.76 40.09,-61.05 40.09,-47.52"/>
<polygon fill="black" stroke="black" points="43.59,-47.86 40.09,-37.86 36.59,-47.86 43.59,-47.86"/>
<text text-anchor="middle" x="43.47" y="-57.2" font-family="Times,serif" font-size="14.00">1</text>
</g>
<!-- DatabaseFactories -->
<g id="node4" class="node">
<title>DatabaseFactories</title>
<ellipse fill="none" stroke="black" cx="172.09" cy="-106.5" rx="78.48" ry="18"/>
<text text-anchor="middle" x="172.09" y="-101.45" font-family="Times,serif" font-size="14.00">DatabaseFactories</text>
</g>
<!-- DatabaseFactories&#45;&gt;Domain -->
<g id="edge3" class="edge">
<title>DatabaseFactories&#45;&gt;Domain</title>
<path fill="none" stroke="black" d="M168.73,-88.41C166.44,-76.76 163.36,-61.05 160.7,-47.52"/>
<polygon fill="black" stroke="black" points="164.16,-46.97 158.79,-37.84 157.29,-48.32 164.16,-46.97"/>
<text text-anchor="middle" x="168.47" y="-57.2" font-family="Times,serif" font-size="14.00">4</text>
</g>
<!-- DatabaseSeeders -->
<g id="node5" class="node">
<title>DatabaseSeeders</title>
<ellipse fill="none" stroke="black" cx="172.09" cy="-195" rx="73.36" ry="18"/>
<text text-anchor="middle" x="172.09" y="-189.95" font-family="Times,serif" font-size="14.00">DatabaseSeeders</text>
</g>
<!-- DatabaseSeeders&#45;&gt;DatabaseFactories -->
<g id="edge4" class="edge">
<title>DatabaseSeeders&#45;&gt;DatabaseFactories</title>
<path fill="none" stroke="black" d="M172.09,-176.91C172.09,-165.26 172.09,-149.55 172.09,-136.02"/>
<polygon fill="black" stroke="black" points="175.59,-136.36 172.09,-126.36 168.59,-136.36 175.59,-136.36"/>
<text text-anchor="middle" x="175.47" y="-145.7" font-family="Times,serif" font-size="14.00">4</text>
</g>
</g>
</svg>
