<?xml version="1.0" encoding="UTF-8" standalone="no"?>
<!DOCTYPE svg PUBLIC "-//W3C//DTD SVG 1.1//EN"
 "http://www.w3.org/Graphics/SVG/1.1/DTD/svg11.dtd">
<!-- Generated by graphviz version 11.0.0 (20240428.1522)
 -->
<!-- Pages: 1 -->
<svg width="280pt" height="221pt"
 viewBox="0.00 0.00 279.55 221.00" xmlns="http://www.w3.org/2000/svg" xmlns:xlink="http://www.w3.org/1999/xlink">
<g id="graph0" class="graph" transform="scale(1 1) rotate(0) translate(4 217)">
<polygon fill="white" stroke="none" points="-4,4 -4,-217 275.55,-217 275.55,4 -4,4"/>
<!-- Bridge -->
<g id="node1" class="node">
<title>Bridge</title>
<ellipse fill="none" stroke="black" cx="61.08" cy="-106.5" rx="36" ry="18"/>
<text text-anchor="middle" x="61.08" y="-101.45" font-family="Times,serif" font-size="14.00">Bridge</text>
</g>
<!-- Domain -->
<g id="node2" class="node">
<title>Domain</title>
<ellipse fill="none" stroke="black" cx="187.08" cy="-18" rx="41.12" ry="18"/>
<text text-anchor="middle" x="187.08" y="-12.95" font-family="Times,serif" font-size="14.00">Domain</text>
</g>
<!-- Bridge&#45;&gt;Domain -->
<g id="edge1" class="edge">
<title>Bridge&#45;&gt;Domain</title>
<path fill="none" stroke="black" d="M81.6,-91.41C101.86,-77.5 133.08,-56.07 156.31,-40.12"/>
<polygon fill="black" stroke="black" points="158.21,-43.06 164.47,-34.52 154.24,-37.29 158.21,-43.06"/>
<text text-anchor="middle" x="141.83" y="-57.2" font-family="Times,serif" font-size="14.00">13</text>
</g>
<!-- Infrastructure -->
<g id="node3" class="node">
<title>Infrastructure</title>
<ellipse fill="none" stroke="black" cx="61.08" cy="-18" rx="61.08" ry="18"/>
<text text-anchor="middle" x="61.08" y="-12.95" font-family="Times,serif" font-size="14.00">Infrastructure</text>
</g>
<!-- Bridge&#45;&gt;Infrastructure -->
<g id="edge2" class="edge">
<title>Bridge&#45;&gt;Infrastructure</title>
<path fill="none" stroke="black" d="M61.08,-88.41C61.08,-76.76 61.08,-61.05 61.08,-47.52"/>
<polygon fill="black" stroke="black" points="64.58,-47.86 61.08,-37.86 57.58,-47.86 64.58,-47.86"/>
<text text-anchor="middle" x="64.45" y="-57.2" font-family="Times,serif" font-size="14.00">1</text>
</g>
<!-- DatabaseFactories -->
<g id="node4" class="node">
<title>DatabaseFactories</title>
<ellipse fill="none" stroke="black" cx="193.08" cy="-106.5" rx="78.48" ry="18"/>
<text text-anchor="middle" x="193.08" y="-101.45" font-family="Times,serif" font-size="14.00">DatabaseFactories</text>
</g>
<!-- DatabaseFactories&#45;&gt;Domain -->
<g id="edge3" class="edge">
<title>DatabaseFactories&#45;&gt;Domain</title>
<path fill="none" stroke="black" d="M191.89,-88.41C191.08,-76.76 189.99,-61.05 189.05,-47.52"/>
<polygon fill="black" stroke="black" points="192.57,-47.59 188.38,-37.86 185.58,-48.08 192.57,-47.59"/>
<text text-anchor="middle" x="193.45" y="-57.2" font-family="Times,serif" font-size="14.00">4</text>
</g>
<!-- DatabaseSeeders -->
<g id="node5" class="node">
<title>DatabaseSeeders</title>
<ellipse fill="none" stroke="black" cx="193.08" cy="-195" rx="73.36" ry="18"/>
<text text-anchor="middle" x="193.08" y="-189.95" font-family="Times,serif" font-size="14.00">DatabaseSeeders</text>
</g>
<!-- DatabaseSeeders&#45;&gt;DatabaseFactories -->
<g id="edge4" class="edge">
<title>DatabaseSeeders&#45;&gt;DatabaseFactories</title>
<path fill="none" stroke="black" d="M193.08,-176.91C193.08,-165.26 193.08,-149.55 193.08,-136.02"/>
<polygon fill="black" stroke="black" points="196.58,-136.36 193.08,-126.36 189.58,-136.36 196.58,-136.36"/>
<text text-anchor="middle" x="196.45" y="-145.7" font-family="Times,serif" font-size="14.00">4</text>
</g>
</g>
</svg>
